<svg width="16" height="16" viewBox="0 0 16 16" fill="none" xmlns="http://www.w3.org/2000/svg">
  <path d="M16 0H0V16H16V0Z" fill="white" fill-opacity="0.01" />
  <path fill-rule="evenodd" clip-rule="evenodd"
    d="M1.83203 2.66679C1.83203 2.20563 2.20587 1.83179 2.66703 1.83179H8.66703C8.88849 1.83179 9.10087 1.91976 9.25746 2.07635L14.6489 7.4678C15.4379 8.26152 15.4379 9.54345 14.6489 10.3372L14.6472 10.3389L10.3455 14.6406C9.96383 15.0225 9.44565 15.2374 8.90573 15.2374C8.36591 15.2374 7.84827 15.023 7.46663 14.6413L2.07693 9.25755C1.92013 9.10093 1.83203 8.8884 1.83203 8.66679V2.66679ZM7.71648 6.52499C7.71648 7.18316 7.18292 7.71673 6.52474 7.71673C5.86657 7.71673 5.33301 7.18316 5.33301 6.52499C5.33301 5.86682 5.86657 5.33325 6.52474 5.33325C7.18292 5.33325 7.71648 5.86682 7.71648 6.52499Z"
    fill="#1E80FF" />
</svg>