<svg width="32" height="32" viewBox="0 0 32 32" fill="none" xmlns="http://www.w3.org/2000/svg">
<circle cx="16" cy="16" r="16" fill="#E8F3FF"/>
<path d="M23.5 8.125C23.7071 8.125 23.875 8.29289 23.875 8.5V23.5C23.875 23.7071 23.7071 23.875 23.5 23.875H9.6875C9.48039 23.875 9.3125 23.7071 9.3125 23.5V20.125H8.5C8.29289 20.125 8.125 19.9571 8.125 19.75V19C8.125 18.7929 8.29289 18.625 8.5 18.625H9.3125V16.75H8.5C8.29289 16.75 8.125 16.5821 8.125 16.375V15.625C8.125 15.4179 8.29289 15.25 8.5 15.25H9.3125V13.375H8.5C8.29289 13.375 8.125 13.2071 8.125 13V12.25C8.125 12.0429 8.29289 11.875 8.5 11.875H9.3125V8.5C9.3125 8.29289 9.48039 8.125 9.6875 8.125H23.5Z" fill="#1E80FF"/>
<path fill-rule="evenodd" clip-rule="evenodd" d="M16.5821 13.9347H16.5828L17.7929 12.9724L16.5828 12.0014L16.5815 12L15.3734 12.9704L16.5815 13.934L16.5821 13.9347ZM16.5843 16.9704L16.585 16.9697L19.7067 14.5068L18.8602 13.827L16.585 15.6221L16.5843 15.6228L16.5836 15.6235L14.3083 13.8283L13.4625 14.5082L16.5836 16.9711L16.5843 16.9704ZM16.5825 18.6538L16.5839 18.6531L20.7634 15.3553L21.6098 16.0352L19.7083 17.5351L16.5839 20L11.6399 16.1016L11.5586 16.0372L12.4051 15.3573L16.5825 18.6538Z" fill="white"/>
</svg>
