<svg width="12" height="12" viewBox="0 0 12 12" fill="none" xmlns="http://www.w3.org/2000/svg">
<path d="M0.937284 6.19946L5.02438 10.559C5.06055 10.5976 5.12527 10.572 5.12527 10.5191V7.90894C5.59477 7.80485 6.08278 7.74996 6.5836 7.74996C8.39404 7.74996 10.037 8.46716 11.2438 9.63293C11.2456 9.63468 11.2487 9.63345 11.2488 9.63089C11.2498 9.58737 11.2503 9.54374 11.2503 9.49996C11.2503 6.43938 8.76918 3.95829 5.7086 3.95829C5.51158 3.95829 5.31698 3.96859 5.12527 3.98865V1.48081C5.12527 1.42793 5.06055 1.40234 5.02438 1.44092L0.937284 5.80049C0.832103 5.91269 0.832103 6.08725 0.937284 6.19946Z" fill="#4E5969" stroke="#4E5969" stroke-width="1.16667"/>
</svg>
