<svg width="12" height="12" viewBox="0 0 12 12" fill="none" xmlns="http://www.w3.org/2000/svg">
<g clip-path="url(#clip0)">
<path fill-rule="evenodd" clip-rule="evenodd" d="M7.61625 1.374H10.2975C10.5498 1.374 10.7543 1.57849 10.7543 1.83075V2.71275C10.7543 2.96501 10.5498 3.1695 10.2975 3.1695H1.20675C0.954495 3.1695 0.750001 2.96501 0.750001 2.71275V1.83075C0.749802 1.70955 0.797859 1.59326 0.88356 1.50756C0.96926 1.42186 1.08555 1.3738 1.20675 1.374H3.8775V1.245C3.8775 0.825 4.221 0.75 4.644 0.75H6.84675C7.26975 0.75 7.61625 0.825 7.61625 1.245V1.374ZM2.16527 5.1695H9.33902C9.47006 5.16955 9.59476 5.22588 9.68143 5.32417C9.7681 5.42246 9.80837 5.55324 9.79202 5.68325L9.05702 11.2498C9.00007 11.6987 8.61859 12.0356 8.16602 12.0365H3.33827C2.88713 12.0337 2.50778 11.6973 2.45102 11.2498L1.71527 5.68325C1.69923 5.5538 1.7392 5.42366 1.82515 5.32554C1.91109 5.22742 2.03483 5.17065 2.16527 5.1695Z" fill="#4E5969"/>
</g>
<defs>
<clipPath id="clip0">
<rect width="12" height="12" fill="white"/>
</clipPath>
</defs>
</svg>
