<svg width="16" height="16" viewBox="0 0 16 16" fill="none" xmlns="http://www.w3.org/2000/svg">
  <path
    d="M7.51754 2.30287C7.57867 2.17899 7.75534 2.17899 7.81647 2.30287L9.48954 5.6929C9.51384 5.7421 9.56074 5.7762 9.61504 5.78407L13.3562 6.3277C13.4929 6.34757 13.5475 6.51557 13.4485 6.61197L10.7414 9.25077C10.7021 9.28904 10.6842 9.3442 10.6935 9.39827L11.3326 13.1243C11.3559 13.2604 11.213 13.3643 11.0907 13.3L7.74457 11.5408C7.69601 11.5153 7.63801 11.5153 7.58944 11.5408L4.24327 13.3C4.12101 13.3643 3.97811 13.2604 4.00144 13.1243L4.64051 9.39827C4.64977 9.3442 4.63187 9.28904 4.59257 9.25077L1.88547 6.61197C1.78655 6.51557 1.84114 6.34757 1.97784 6.3277L5.71897 5.78407C5.77327 5.7762 5.82017 5.7421 5.84447 5.6929L7.51754 2.30287Z"
    fill="#4E5969" stroke="#4E5969" stroke-width="1.66667" />
</svg>