<svg width="20" height="20" viewBox="0 0 20 20" fill="none" xmlns="http://www.w3.org/2000/svg">
<path d="M10 18.75C14.8325 18.75 18.75 14.8325 18.75 10C18.75 5.16751 14.8325 1.25 10 1.25C5.16751 1.25 1.25 5.16751 1.25 10C1.25 14.8325 5.16751 18.75 10 18.75Z" fill="#FF7D00"/>
<path fill-rule="evenodd" clip-rule="evenodd" d="M10.6289 12.3578C10.8974 12.3578 11.115 12.5754 11.115 12.8439V14.1078C11.115 14.3763 10.8974 14.5939 10.6289 14.5939H9.36502C9.09655 14.5939 8.87891 14.3763 8.87891 14.1078V12.8439C8.87891 12.5754 9.09655 12.3578 9.36502 12.3578H10.6289ZM10.6289 5.21826C10.8974 5.21826 11.115 5.4359 11.115 5.70437V10.8184C11.115 11.0869 10.8974 11.3046 10.6289 11.3046H9.36502C9.09655 11.3046 8.87891 11.0869 8.87891 10.8184V5.70437C8.87891 5.4359 9.09655 5.21826 9.36502 5.21826H10.6289Z" fill="white"/>
</svg>
