<svg width="30" height="30" viewBox="0 0 30 30" fill="none" xmlns="http://www.w3.org/2000/svg">
<circle cx="15" cy="15" r="15" fill="#1E80FF"/>
<path d="M21.3892 14.2858C21.4151 14.5203 21.4284 14.7587 21.4284 15.0001C21.4284 18.5505 18.5503 21.4287 14.9999 21.4287C11.4495 21.4287 8.57129 18.5505 8.57129 15.0001C8.57129 11.4497 11.4495 8.57153 14.9999 8.57153C15.2413 8.57153 15.4796 8.58484 15.7141 8.61077" stroke="white" stroke-width="1.5" stroke-linecap="round" stroke-linejoin="round"/>
<path d="M17.1431 14.2857C17.1431 15.8928 15.3064 17.8571 15.0003 17.8571C14.6942 17.8571 12.8574 15.8928 12.8574 14.2857C12.8574 13.1022 13.8168 12.1428 15.0003 12.1428C16.1837 12.1428 17.1431 13.1022 17.1431 14.2857Z" fill="white" stroke="white" stroke-width="2"/>
<circle opacity="0.5" cx="20.0003" cy="10" r="1.39286" stroke="white" stroke-width="1.5"/>
<circle cx="14.9999" cy="14.2857" r="1.42857" fill="#1E80FF"/>
</svg>
