<svg width="16" height="16" viewBox="0 0 16 16" fill="none" xmlns="http://www.w3.org/2000/svg">
<path fill-rule="evenodd" clip-rule="evenodd" d="M7.16602 2.6665C6.88987 2.6665 6.66602 2.89036 6.66602 3.1665V6.6665H3.16602C2.88987 6.6665 2.66602 6.89036 2.66602 7.1665V8.83317C2.66602 9.10931 2.88987 9.33317 3.16602 9.33317H6.66602V12.8332C6.66602 13.1093 6.88987 13.3332 7.16602 13.3332H8.83268C9.10883 13.3332 9.33268 13.1093 9.33268 12.8332V9.33317H12.8327C13.1088 9.33317 13.3327 9.10931 13.3327 8.83317V7.1665C13.3327 6.89036 13.1088 6.6665 12.8327 6.6665H9.33268V3.1665C9.33268 2.89036 9.10883 2.6665 8.83268 2.6665H7.16602Z" fill="white"/>
</svg>
