<svg width="14" height="14" viewBox="0 0 14 14" fill="none" xmlns="http://www.w3.org/2000/svg">
<path fill-rule="evenodd" clip-rule="evenodd" d="M7.0002 0.366699C7.44202 0.366699 7.8002 0.724871 7.8002 1.1667V1.89448C9.95473 2.27302 11.5919 4.15367 11.5919 6.4167V8.91426H12.2502C12.692 8.91426 13.0502 9.27243 13.0502 9.71426C13.0502 10.1561 12.692 10.5143 12.2502 10.5143H1.7502C1.30837 10.5143 0.950195 10.1561 0.950195 9.71426C0.950195 9.27243 1.30837 8.91426 1.7502 8.91426H2.40853V6.4167C2.40853 4.15367 4.04567 2.27302 6.2002 1.89448V1.1667C6.2002 0.724871 6.55837 0.366699 7.0002 0.366699ZM4.15853 12.25C4.15853 11.8082 4.5167 11.45 4.95853 11.45H9.04186C9.48369 11.45 9.84186 11.8082 9.84186 12.25C9.84186 12.6919 9.48369 13.05 9.04186 13.05H4.95853C4.5167 13.05 4.15853 12.6919 4.15853 12.25Z" fill="#EA7132"/>
</svg>
