<svg width="30" height="30" viewBox="0 0 30 30" fill="none" xmlns="http://www.w3.org/2000/svg">
<circle cx="15" cy="15" r="15" fill="#E3E3E3"/>
<path d="M21.3892 14.2856C21.4151 14.5201 21.4284 14.7584 21.4284 14.9999C21.4284 18.5503 18.5503 21.4284 14.9999 21.4284C11.4495 21.4284 8.57129 18.5503 8.57129 14.9999C8.57129 11.4495 11.4495 8.57129 14.9999 8.57129C15.2413 8.57129 15.4796 8.5846 15.7141 8.61052" stroke="#272727" stroke-width="1.5" stroke-linecap="round" stroke-linejoin="round"/>
<path d="M17.1426 14.2859C17.1426 15.8931 15.3059 17.8574 14.9998 17.8574C14.6937 17.8574 12.8569 15.8931 12.8569 14.2859C12.8569 13.1025 13.8163 12.1431 14.9998 12.1431C16.1833 12.1431 17.1426 13.1025 17.1426 14.2859Z" fill="#272727" stroke="#272727" stroke-width="2"/>
<circle opacity="0.5" cx="19.9998" cy="9.99979" r="1.39286" stroke="#272727" stroke-width="1.5"/>
<circle cx="14.9999" cy="14.2855" r="1.42857" fill="#E3E3E3"/>
</svg>
