<svg width="12" height="12" viewBox="0 0 12 12" fill="none" xmlns="http://www.w3.org/2000/svg">
<path d="M5.85021 0.512292C5.91163 0.38783 6.08914 0.38783 6.15056 0.512292L7.83158 3.91844C7.85599 3.96787 7.90311 4.00213 7.95767 4.01004L11.7166 4.55625C11.8539 4.57621 11.9088 4.74501 11.8094 4.84187L9.08942 7.49321C9.04994 7.53166 9.03195 7.58709 9.04126 7.64141L9.68337 11.3851C9.70681 11.5219 9.56323 11.6263 9.44038 11.5617L6.07832 9.79412C6.02952 9.76847 5.97124 9.76847 5.92245 9.79412L2.56038 11.5617C2.43753 11.6263 2.29395 11.5219 2.3174 11.3851L2.9595 7.64141C2.96881 7.58709 2.95083 7.53166 2.91134 7.49321L0.191378 4.84187C0.0919884 4.74501 0.146834 4.57621 0.284187 4.55625L4.04309 4.01004C4.09765 4.00213 4.14477 3.96787 4.16919 3.91844L5.85021 0.512292Z" fill="#4E5969"/>
</svg>
