<svg width="178" height="129" viewBox="0 0 178 129" fill="none" xmlns="http://www.w3.org/2000/svg">
<path d="M88.8114 123.515C137.793 123.515 177.5 114.3 177.5 102.934C177.5 91.5672 137.793 82.3528 88.8114 82.3528C39.8302 82.3528 0.123047 91.5672 0.123047 102.934C0.123047 114.3 39.8302 123.515 88.8114 123.515Z" fill="url(#paint0_linear)"/>
<path d="M43.3582 103.8C41.5571 103.247 41.45 100.737 43.1975 100.033L81.6688 84.5234C83.7952 83.6662 86.1516 83.5657 88.3432 84.2387L124.652 95.388C126.453 95.941 126.56 98.4503 124.812 99.1548L86.3411 114.664C84.2147 115.521 81.8584 115.622 79.6667 114.949L43.3582 103.8Z" fill="white"/>
<path d="M76.4419 102.774C73.886 99.3663 71.2836 93.1548 81.3212 95.5713C91.3589 97.9877 91.0799 96.4425 90.3829 95.5713L88.1755 92.8992" stroke="#AECEFC" stroke-width="2" stroke-linecap="round" stroke-linejoin="round"/>
<path d="M75.5938 70.0236C74.555 69.6481 74.0173 68.5016 74.3928 67.4629L94.5279 11.7573C96.4053 6.56338 102.138 3.87478 107.332 5.75218L129.618 13.8076C134.812 15.685 137.5 21.4175 135.623 26.6115L115.488 82.317C115.112 83.3558 113.966 83.8935 112.927 83.518L75.5938 70.0236Z" fill="#E0EAFF"/>
<mask id="mask0" style="mask-type:alpha" maskUnits="userSpaceOnUse" x="73" y="2" width="67" height="83">
<path d="M75.5938 70.0236C74.555 69.6481 74.0173 68.5016 74.3928 67.4629L94.5279 11.7573C96.4053 6.56338 102.138 3.87478 107.332 5.75218L129.618 13.8076C134.812 15.685 137.5 21.4175 135.623 26.6115L115.488 82.317C115.112 83.3558 113.966 83.8935 112.927 83.518L75.5938 70.0236Z" fill="#254A94"/>
</mask>
<g mask="url(#mask0)">
<path fill-rule="evenodd" clip-rule="evenodd" d="M99.0792 -0.833252L72.5371 72.5974L85.7413 77.3701L112.283 3.93949L99.0792 -0.833252ZM127.512 8.88974L101.583 80.6247L114.787 85.3975L140.716 13.6625L127.512 8.88974Z" fill="#AECEFC"/>
</g>
<mask id="mask1" style="mask-type:alpha" maskUnits="userSpaceOnUse" x="73" y="2" width="67" height="83">
<path d="M75.5938 70.0236C74.555 69.6481 74.0173 68.5016 74.3928 67.4629L94.5279 11.7573C96.4053 6.56338 102.138 3.87478 107.332 5.75218L129.618 13.8076C134.812 15.685 137.5 21.4175 135.623 26.6115L115.488 82.317C115.112 83.3558 113.966 83.8935 112.927 83.518L75.5938 70.0236Z" fill="#254A94"/>
</mask>
<g mask="url(#mask1)">
<path d="M72.5371 72.5974L99.0792 -0.833252L112.283 3.93949L85.7413 77.3701L72.5371 72.5974Z" fill="#F1F6FF"/>
</g>
<path d="M74.2404 68.7538L87.2924 92.9932C87.5323 93.4388 88.0674 93.6349 88.5385 93.4498L114.715 83.1661C115.11 83.0108 115.143 82.47 114.766 82.2754C113.558 81.6523 111.413 80.5917 109.65 79.9617C107.296 79.1199 103.243 78.1956 102.468 78.0219C102.381 78.0023 102.299 77.9724 102.22 77.9312C101.51 77.562 97.7522 75.631 95.0879 74.7117C92.4194 73.7909 88.144 72.9523 87.3441 72.7991C87.2564 72.7823 87.1733 72.7549 87.0929 72.7162C86.3684 72.3671 82.5299 70.5305 80.1504 69.6492C78.3909 68.9975 76.1121 68.3804 74.7912 68.0421C74.3734 67.935 74.0359 68.374 74.2404 68.7538Z" fill="#FFE3E2"/>
<mask id="mask2" style="mask-type:alpha" maskUnits="userSpaceOnUse" x="72" y="4" width="67" height="83">
<path d="M74.7422 72.2919C73.7034 71.9164 73.1657 70.77 73.5412 69.7312L93.6764 14.0256C95.5538 8.83169 101.286 6.14309 106.48 8.02049L128.766 16.0759C133.96 17.9533 136.649 23.6858 134.771 28.8798L114.636 84.5853C114.261 85.6241 113.114 86.1618 112.075 85.7863L74.7422 72.2919Z" fill="#E0EAFF"/>
</mask>
<g mask="url(#mask2)">
<path d="M84.7461 27.908L88.2273 18.2768L137.018 35.9125L133.537 45.5437L84.7461 27.908Z" fill="#80B4FF"/>
<path d="M87.4844 24.5164L87.7927 23.6633L136.583 41.2991L136.275 42.1521L87.4844 24.5164Z" fill="#3770E2"/>
</g>
<path d="M153.395 49.4648H143.385C140.986 49.4648 139.021 51.4289 139.021 53.8283V58.655C139.021 60.7719 140.545 62.546 142.551 62.9351V66.0618C142.551 66.4647 143.028 66.6825 143.334 66.4184L147.262 63.0138H153.395C155.794 63.0138 157.758 61.0498 157.758 58.6504V53.8283C157.758 51.4289 155.794 49.4648 153.395 49.4648Z" fill="#CEE6FF"/>
<path d="M143.788 57.7516C144.576 57.7516 145.215 57.1128 145.215 56.3249C145.215 55.5369 144.576 54.8982 143.788 54.8982C143 54.8982 142.361 55.5369 142.361 56.3249C142.361 57.1128 143 57.7516 143.788 57.7516Z" fill="white"/>
<path d="M148.573 57.7516C149.361 57.7516 150 57.1128 150 56.3249C150 55.5369 149.361 54.8982 148.573 54.8982C147.785 54.8982 147.146 55.5369 147.146 56.3249C147.146 57.1128 147.785 57.7516 148.573 57.7516Z" fill="white"/>
<path d="M153.362 57.7516C154.15 57.7516 154.789 57.1128 154.789 56.3249C154.789 55.5369 154.15 54.8982 153.362 54.8982C152.574 54.8982 151.936 55.5369 151.936 56.3249C151.936 57.1128 152.574 57.7516 153.362 57.7516Z" fill="white"/>
<path fill-rule="evenodd" clip-rule="evenodd" d="M91.7207 19.5L132.816 34.3541L135.807 26.0786C137.684 20.8846 134.996 15.1522 129.802 13.2748L107.516 5.21932C102.322 3.34192 96.5893 6.03052 94.712 11.2245L91.7207 19.5Z" fill="#C8EDEB"/>
<path fill-rule="evenodd" clip-rule="evenodd" d="M94.7129 10.7611C101.918 9.07291 111.048 9.02994 117.708 17.0229C119.863 19.6092 120.478 20.3367 123.353 21.0867C123.471 21.1175 123.627 21.151 123.814 21.191C126.136 21.688 133.105 23.1802 128.135 32.7271L132.636 34.3541L135.628 26.0786C137.505 20.8846 134.816 15.1522 129.622 13.2748L107.336 5.21932C102.299 3.39859 96.7554 5.87238 94.7129 10.7611Z" fill="#B1E1DD"/>
<mask id="mask3" style="mask-type:alpha" maskUnits="userSpaceOnUse" x="74" y="68" width="42" height="26">
<path d="M74.2404 68.7538L87.2924 92.9932C87.5323 93.4388 88.0674 93.6349 88.5385 93.4498L114.715 83.1661C115.11 83.0108 115.143 82.47 114.766 82.2754C113.558 81.6523 111.413 80.5917 109.65 79.9617C107.296 79.1199 103.243 78.1956 102.468 78.0219C102.381 78.0023 102.299 77.9724 102.22 77.9312C101.51 77.562 97.7522 75.631 95.0879 74.7117C92.4194 73.7909 88.144 72.9523 87.3441 72.7991C87.2564 72.7823 87.1733 72.7549 87.0929 72.7162C86.3684 72.3671 82.5299 70.5305 80.1504 69.6492C78.3909 68.9975 76.1121 68.3804 74.7912 68.0421C74.3734 67.935 74.0359 68.374 74.2404 68.7538Z" fill="#FFE3E2"/>
</mask>
<g mask="url(#mask3)">
<circle cx="86.8904" cy="96.167" r="9.45093" fill="#3770E2"/>
</g>
<circle cx="98.2129" cy="16.7742" r="1.5" fill="#B1E1DD"/>
<path opacity="0.5" d="M20.2284 27.1455C22.8377 27.1455 24.9529 25.0303 24.9529 22.421C24.9529 19.8118 22.8377 17.6965 20.2284 17.6965C17.6191 17.6965 15.5039 19.8118 15.5039 22.421C15.5039 25.0303 17.6191 27.1455 20.2284 27.1455Z" fill="#D6EDFC"/>
<path opacity="0.5" d="M51.2726 43.2754C53.2364 43.2754 54.8284 41.6834 54.8284 39.7196C54.8284 37.7558 53.2364 36.1638 51.2726 36.1638C49.3088 36.1638 47.7168 37.7558 47.7168 39.7196C47.7168 41.6834 49.3088 43.2754 51.2726 43.2754Z" fill="#D6EDFC"/>
<path opacity="0.5" d="M64.7328 13.1622C68.2129 13.1622 71.034 10.341 71.034 6.86099C71.034 3.38095 68.2129 0.559814 64.7328 0.559814C61.2528 0.559814 58.4316 3.38095 58.4316 6.86099C58.4316 10.341 61.2528 13.1622 64.7328 13.1622Z" fill="#D6EDFC"/>
<path d="M23.357 48.353C18.627 48.353 18.7593 55.9056 20.0713 60.0237C21.3834 64.1418 15.8705 71.1321 19.283 76.6283C22.7009 82.1191 16.3943 84.6165 23.357 95.1074" fill="#D6EDE8"/>
<path d="M23.3574 48.3528C28.0874 48.3528 27.9551 55.9054 26.6431 60.0235C25.331 64.1415 30.8439 71.1318 27.4314 76.6281C24.0134 82.1189 30.3201 84.6162 23.3574 95.1071" fill="#D6EDE8"/>
<path d="M37.7449 63.408C34.5364 63.408 34.6246 68.5294 35.5177 71.3189C36.4108 74.1139 32.6676 78.8494 34.983 82.5761C37.2984 86.3028 33.0204 87.9952 37.7449 95.1012" fill="#D6EDE8"/>
<path d="M37.7441 63.408C40.9526 63.408 40.8644 68.5294 39.9713 71.3189C39.0782 74.1139 42.8215 78.8494 40.5061 82.5761C38.1907 86.3028 42.4686 87.9952 37.7441 95.1012" fill="#D6EDE8"/>
<path d="M145.622 104.229C150.087 103.529 151.802 105.265 151.802 105.265C155.231 105.116 155.231 106.566 155.231 106.566C148.511 109.951 140.898 109.234 140.898 109.234C140.898 109.234 134.971 106.572 138.863 102.79C138.863 102.79 140.104 102.079 140.969 103.027C140.964 103.021 144.42 102.724 145.622 104.229Z" fill="url(#paint1_linear)"/>
<path d="M147.065 98.7655C150.77 96.621 151.961 99.7799 151.961 99.7799C154.761 98.9144 154.596 101.781 154.596 101.781C148.752 109.62 140.897 109.234 140.897 109.234C140.897 109.234 133.829 107.509 137.423 99.3499C137.423 99.3499 140.406 96.8801 141.828 98.3465C141.823 98.341 146.266 95.9815 147.065 98.7655Z" fill="white"/>
<path d="M140.361 104.576L139.832 104.527C140.163 100.987 141.651 98.3468 141.706 98.2366L141.894 98.3799C141.877 98.4075 140.681 101.142 140.361 104.576Z" fill="#EBF0FE"/>
<path d="M146.718 105.618L146.42 105.177C150.224 102.619 151.85 99.769 151.867 99.7415L152.06 99.8352C151.999 99.9565 150.648 102.972 146.718 105.618Z" fill="#EBF0FE"/>
<path d="M143.565 105.078L143.107 104.802L146.988 98.7214L147.181 98.8317L143.565 105.078Z" fill="#EBF0FE"/>
<defs>
<linearGradient id="paint0_linear" x1="88.8105" y1="81.476" x2="88.8105" y2="136.449" gradientUnits="userSpaceOnUse">
<stop offset="0.000926442" stop-color="#CEE6FF" stop-opacity="0.8"/>
<stop offset="0.00752014" stop-color="#CEE6FF" stop-opacity="0.7935"/>
<stop offset="0.8066" stop-color="#CEE6FF" stop-opacity="0"/>
</linearGradient>
<linearGradient id="paint1_linear" x1="153.4" y1="103.232" x2="139.499" y2="106.875" gradientUnits="userSpaceOnUse">
<stop offset="0.000926442" stop-color="#CEE6FF" stop-opacity="0.8"/>
<stop offset="0.8588" stop-color="#CEE6FF" stop-opacity="0.1131"/>
<stop offset="1" stop-color="#CEE6FF" stop-opacity="0"/>
</linearGradient>
</defs>
</svg>
