<svg width="162" height="125" viewBox="0 0 162 125" fill="none" xmlns="http://www.w3.org/2000/svg">
<g filter="url(#filter0_b)">
<mask id="path-1-inside-1" fill="white">
<path d="M24.6553 85.3768L24.9455 83.4806L70.0466 111.442C71.4324 112.301 73.15 112.431 74.6489 111.789L139.531 84.0138L140.242 83.1758V85.6884C140.242 88.1173 137.885 89.1644 136.6 89.8767L77.0545 115.607C73.4266 117.038 70.3025 116.005 69.1939 115.309L27.6733 89.7628C24.9727 88.28 24.6553 86.1716 24.6553 85.3768Z"/>
</mask>
<path d="M24.9455 83.4806L27.5801 79.231L21.1479 75.2433L20.003 82.7242L24.9455 83.4806ZM24.6553 85.3768L19.7128 84.6204L19.6553 84.9964V85.3768H24.6553ZM27.6733 89.7628L30.2934 85.5043L30.1881 85.4395L30.0797 85.38L27.6733 89.7628ZM69.1939 115.309L71.8511 111.074L71.8326 111.062L71.8141 111.051L69.1939 115.309ZM77.0545 115.607L78.8887 120.259L78.9638 120.229L79.0379 120.197L77.0545 115.607ZM136.6 89.8767L138.584 94.4665L138.809 94.369L139.024 94.2498L136.6 89.8767ZM140.242 83.1758H145.242V69.554L136.429 79.941L140.242 83.1758ZM70.0466 111.442L72.6812 107.192L72.6812 107.192L70.0466 111.442ZM74.6489 111.789L76.6167 116.385L74.6489 111.789ZM139.531 84.0138L141.498 88.6103L142.581 88.1468L143.343 87.2486L139.531 84.0138ZM20.003 82.7242L19.7128 84.6204L29.5977 86.1332L29.8879 84.237L20.003 82.7242ZM19.6553 85.3768C19.6553 87.5093 20.5809 91.5728 25.2669 94.1457L30.0797 85.38C29.8117 85.2329 29.6842 85.1159 29.6364 85.0671C29.5891 85.0187 29.5868 85.0033 29.5993 85.0276C29.6096 85.0476 29.6232 85.0816 29.634 85.1317C29.6438 85.1769 29.6553 85.2526 29.6553 85.3768H19.6553ZM25.0532 94.0213L66.5738 119.568L71.8141 111.051L30.2934 85.5043L25.0532 94.0213ZM66.5368 119.545C68.8074 120.969 73.5917 122.348 78.8887 120.259L75.2203 110.956C74.2672 111.332 73.4276 111.37 72.781 111.292C72.0555 111.204 71.715 110.988 71.8511 111.074L66.5368 119.545ZM79.0379 120.197L138.584 94.4665L134.617 85.2869L75.0712 111.018L79.0379 120.197ZM139.024 94.2498C139.329 94.0807 140.924 93.299 142.191 92.193C143.649 90.9202 145.242 88.7838 145.242 85.6884H135.242C135.242 85.4443 135.311 85.1586 135.444 84.9105C135.558 84.6958 135.661 84.6189 135.615 84.6595C135.563 84.7049 135.437 84.8003 135.176 84.9539C135.05 85.028 134.912 85.1045 134.744 85.1957C134.608 85.2692 134.363 85.4002 134.176 85.5036L139.024 94.2498ZM145.242 85.6884V83.1758H135.242V85.6884H145.242ZM22.3109 87.7302L67.412 115.692L72.6812 107.192L27.5801 79.231L22.3109 87.7302ZM76.6167 116.385L141.498 88.6103L137.563 79.4173L72.6812 107.192L76.6167 116.385ZM143.343 87.2486L144.054 86.4106L136.429 79.941L135.718 80.779L143.343 87.2486ZM67.412 115.692C70.1835 117.41 73.6188 117.669 76.6167 116.385L72.6812 107.192V107.192L67.412 115.692Z" fill="#5397FF" fill-opacity="0.87" mask="url(#path-1-inside-1)"/>
</g>
<g filter="url(#filter1_b)">
<path d="M89.5341 64.9743L25.21 83.5907L70.276 111.64C71.9756 112.625 74.0191 112.255 74.8285 111.948L139.777 83.9374C140.096 83.6277 140.131 83.5075 140.245 83.1136L140.252 83.0883C140.252 82.4599 139.814 82.2286 139.474 82.0906L90.6419 64.5308C90.6419 64.5308 89.8376 64.8717 89.5341 64.9743Z" fill="white" fill-opacity="0.9"/>
<path d="M89.5341 64.9743L25.21 83.5907L70.276 111.64C71.9756 112.625 74.0191 112.255 74.8285 111.948L139.777 83.9374C140.096 83.6277 140.131 83.5075 140.245 83.1136L140.252 83.0883C140.252 82.4599 139.814 82.2286 139.474 82.0906L90.6419 64.5308C90.6419 64.5308 89.8376 64.8717 89.5341 64.9743Z" stroke="white" stroke-width="0.4"/>
</g>
<g filter="url(#filter2_b)">
<mask id="path-4-inside-2" fill="white">
<path d="M21.92 79.6668C22.151 82.4588 24.1477 83.9407 24.94 84.1018L20.6874 25.1271C20.576 23.5829 21.658 22.2076 23.185 21.9524L87.0873 11.2712C87.1879 11.2543 87.2017 11.1153 87.1063 11.0791L84.6263 10.1363C83.8029 9.94504 83.0028 10.036 82.4955 10.1363L21.3112 20.0692C18.8762 20.3698 17.8797 21.8508 17.9628 23.0792C19.1804 41.0387 21.7401 77.4934 21.92 79.6668Z"/>
</mask>
<path d="M24.94 84.1018L23.9434 89.0015L30.401 90.3149L29.927 83.7422L24.94 84.1018ZM21.92 79.6668L16.937 80.0791L21.92 79.6668ZM17.9628 23.0792L12.9742 23.4167L12.9742 23.4174L17.9628 23.0792ZM21.3112 20.0692L21.9237 25.0316L22.0183 25.0199L22.1124 25.0046L21.3112 20.0692ZM82.4955 10.1363L83.2967 15.0717L83.3814 15.0579L83.4655 15.0413L82.4955 10.1363ZM84.6263 10.1363L86.4029 5.4626L86.0869 5.34248L85.7577 5.26599L84.6263 10.1363ZM87.1063 11.0791L85.3297 15.7528L85.3298 15.7528L87.1063 11.0791ZM87.0873 11.2712L86.263 6.33958L86.263 6.33958L87.0873 11.2712ZM23.185 21.9524L22.3607 17.0208L23.185 21.9524ZM20.6874 25.1271L25.6744 24.7675L20.6874 25.1271ZM25.9365 79.2021C26.3321 79.2826 26.5997 79.3984 26.7158 79.4529C26.8514 79.5165 26.9358 79.5703 26.9752 79.597C27.0518 79.649 27.0578 79.6663 27.0333 79.6374C27.0016 79.6001 26.9229 79.4957 26.903 79.2544L16.937 80.0791C17.1481 82.6299 18.1833 84.6624 19.4058 86.1044C20.4482 87.3338 22.0555 88.6175 23.9434 89.0015L25.9365 79.2021ZM26.903 79.2544C26.727 77.1282 24.1704 40.7225 22.9513 22.741L12.9742 23.4174C14.1904 41.355 16.7533 77.8586 16.937 80.0791L26.903 79.2544ZM22.9514 22.7417C23.0109 23.6207 22.6683 24.3079 22.2862 24.7029C21.8914 25.1109 21.6176 25.0693 21.9237 25.0316L20.6987 15.1069C16.3751 15.6405 12.6652 18.8506 12.9742 23.4167L22.9514 22.7417ZM22.1124 25.0046L83.2967 15.0717L81.6943 5.20092L20.51 15.1338L22.1124 25.0046ZM83.4655 15.0413C83.4887 15.0367 83.5138 15.0326 83.539 15.0294C83.5644 15.0263 83.5843 15.025 83.5974 15.0246C83.6108 15.0241 83.6101 15.0249 83.596 15.0237C83.5819 15.0225 83.5471 15.0187 83.4949 15.0066L85.7577 5.26599C83.9635 4.84922 82.3749 5.06331 81.5254 5.23131L83.4655 15.0413ZM82.8497 14.81L85.3297 15.7528L88.883 6.40535L86.4029 5.4626L82.8497 14.81ZM86.263 6.33958L22.3607 17.0208L24.0093 26.884L87.9116 16.2027L86.263 6.33958ZM15.7003 25.4867L19.9529 84.4614L29.927 83.7422L25.6744 24.7675L15.7003 25.4867ZM22.3607 17.0208C18.2887 17.7014 15.4034 21.3689 15.7003 25.4867L25.6744 24.7675C25.7487 25.7969 25.0273 26.7138 24.0093 26.884L22.3607 17.0208ZM85.3298 15.7528C80.656 13.9762 81.3324 7.1637 86.263 6.33958L87.9116 16.2028C93.0435 15.345 93.7475 8.25445 88.8829 6.40533L85.3298 15.7528Z" fill="#5397FF" fill-opacity="0.82" mask="url(#path-4-inside-2)"/>
</g>
<g filter="url(#filter3_b)">
<path d="M24.4583 82.8275L20.5752 24.7339C20.4446 22.7881 21.7873 22.302 22.9992 21.998L86.3252 11.0537C87.7796 10.8105 88.3452 11.763 88.4462 12.2697L91.1327 63.6428C91.1327 64.6001 90.695 64.828 90.303 64.9921L25.6707 83.9321C24.8624 83.9321 24.4583 83.1531 24.4583 82.8275Z" fill="#D2E2FB" fill-opacity="0.7"/>
<path d="M24.6583 82.8275H24.6587L24.6579 82.8141L20.7748 24.7206L20.7748 24.7205C20.7132 23.8027 20.9967 23.2591 21.4138 22.9023C21.8438 22.5344 22.4375 22.3454 23.0406 22.1938L86.3582 11.2509C86.3583 11.2509 86.3584 11.2509 86.3586 11.2509C87.0345 11.1379 87.4803 11.3043 87.7676 11.5361C88.0559 11.7688 88.2012 12.0814 88.2472 12.2953L90.9327 63.648C90.9319 64.0927 90.8302 64.3387 90.7089 64.4896C90.5866 64.6419 90.4244 64.724 90.236 64.8033L25.6432 83.7317C25.3236 83.7232 25.0815 83.5678 24.9132 83.3716C24.7329 83.1616 24.6583 82.9299 24.6583 82.8275Z" stroke="url(#paint0_linear)" stroke-width="0.4"/>
</g>
<g filter="url(#filter4_b)">
<path d="M49.0294 75.4612C47.5823 75.9636 47.6659 77.0667 47.955 77.7283L79.0684 68.7532C79.0684 68.7532 79.0683 66.9576 76.6754 67.5568L49.0294 75.4612Z" fill="#1E80FF" fill-opacity="0.94"/>
</g>
<g filter="url(#filter5_bd)">
<path d="M122.315 16.2412L49.4829 30.86C48.5113 31.0551 47.829 31.9322 47.8791 32.9219L48.6228 47.6297C48.6855 48.869 49.8498 49.7527 51.0603 49.4797L123.148 33.2204C124.061 33.0147 124.708 32.2044 124.708 31.2694V18.2021C124.708 16.9394 123.553 15.9927 122.315 16.2412Z" fill="white" fill-opacity="0.87" shape-rendering="crispEdges"/>
<path d="M122.315 16.2412L49.4829 30.86C48.5113 31.0551 47.829 31.9322 47.8791 32.9219L48.6228 47.6297C48.6855 48.869 49.8498 49.7527 51.0603 49.4797L123.148 33.2204C124.061 33.0147 124.708 32.2044 124.708 31.2694V18.2021C124.708 16.9394 123.553 15.9927 122.315 16.2412Z" stroke="url(#paint1_linear)" stroke-width="0.4" stroke-linejoin="round" shape-rendering="crispEdges"/>
</g>
<g filter="url(#filter6_bd)">
<path d="M134.647 39.1484C134.647 40.0767 134.009 40.8831 133.105 41.0954L118.702 44.479C117.446 44.7738 116.244 43.8214 116.244 42.532V27.7567C116.244 26.8169 116.898 26.0039 117.817 25.8029L132.22 22.6505C133.467 22.3775 134.647 23.3274 134.647 24.6042V39.1484Z" fill="#519DFF" fill-opacity="0.7" shape-rendering="crispEdges"/>
</g>
<path d="M120.501 31.9106C120.186 31.9106 119.898 31.6808 119.83 31.3434C119.754 30.9557 119.987 30.568 120.357 30.489L124.613 29.5414C124.983 29.4552 125.347 29.7065 125.429 30.0942C125.511 30.4819 125.271 30.8624 124.901 30.9485L120.645 31.8962C120.597 31.9034 120.549 31.9106 120.501 31.9106Z" fill="white"/>
<path d="M127.19 30.5826C126.875 30.5826 126.587 30.3529 126.518 30.0155C126.436 29.6278 126.676 29.2473 127.046 29.1611L131.014 28.2708C131.384 28.1847 131.747 28.436 131.83 28.8237C131.912 29.2114 131.672 29.5919 131.302 29.678L127.334 30.5683C127.286 30.5755 127.238 30.5826 127.19 30.5826Z" fill="white"/>
<path d="M127.19 35.938C126.875 35.938 126.594 35.7083 126.518 35.3708C126.436 34.9832 126.669 34.6026 127.039 34.5165L131.008 33.6047C131.385 33.5185 131.741 33.7626 131.823 34.1503C131.905 34.538 131.672 34.9185 131.302 35.0047L127.334 35.9165C127.286 35.938 127.238 35.938 127.19 35.938Z" fill="white"/>
<path d="M127.19 38.4654C126.875 38.4654 126.594 38.2356 126.518 37.9054C126.436 37.5177 126.669 37.1372 127.039 37.051L131.008 36.132C131.378 36.0459 131.741 36.29 131.823 36.6777C131.905 37.0654 131.672 37.4459 131.302 37.532L127.334 38.451C127.286 38.4582 127.238 38.4654 127.19 38.4654Z" fill="white"/>
<path d="M122.633 33.6474C122.256 33.6474 121.947 33.3243 121.947 32.9294V28.4997C121.947 28.1048 122.256 27.7817 122.633 27.7817C123.01 27.7817 123.318 28.1048 123.318 28.4997V32.9366C123.318 33.3315 123.01 33.6474 122.633 33.6474Z" fill="white"/>
<path d="M124.148 39.6351C124.004 39.6351 123.853 39.5848 123.73 39.4843L120.358 36.7489C120.056 36.5048 120.001 36.0525 120.234 35.7438C120.467 35.4279 120.899 35.3705 121.194 35.6146L124.566 38.35C124.867 38.5941 124.922 39.0464 124.689 39.3551C124.552 39.5346 124.353 39.6351 124.148 39.6351Z" fill="white"/>
<path d="M120.783 40.4192C120.632 40.4192 120.475 40.3689 120.351 40.254C120.057 40.0028 120.016 39.5505 120.255 39.2417L123.627 34.9556C123.867 34.6469 124.299 34.6038 124.594 34.8551C124.888 35.1064 124.93 35.5587 124.69 35.8674L121.318 40.1535C121.174 40.3258 120.975 40.4192 120.783 40.4192Z" fill="white"/>
<path d="M62.3088 38.228L61.7813 35.3751L60.3672 34.4644H57.7784L55.0937 36.0704L53.9434 39.8817L55.3096 42.4225C56.4283 42.4305 58.6896 42.4417 58.7854 42.4225C58.8813 42.4034 60.2635 41.3758 60.9425 40.8645L62.3088 38.228Z" fill="white"/>
<path d="M64.6381 41.418L62.3083 39.9511C62.7293 39.1519 62.9785 38.2766 62.9785 37.4013C62.9785 34.8066 60.8522 33.1805 58.2417 33.7825C55.6312 34.3845 53.5049 36.9619 53.5049 39.5394C53.5049 42.1168 55.6312 43.7394 58.2417 43.1582C59.5925 42.8572 60.8101 42.0234 61.6732 40.9267L63.9539 42.3624C64.0521 42.4247 64.1749 42.4386 64.2977 42.4143C64.4451 42.3797 64.5925 42.2863 64.6977 42.1445C64.8837 41.8816 64.8591 41.5563 64.6381 41.418ZM58.2417 42.1168C56.2101 42.57 54.5575 41.3072 54.5575 39.3007C54.5575 37.2941 56.2101 35.2875 58.2417 34.8204C60.2732 34.3534 61.9258 35.6196 61.9258 37.6366C61.9258 39.6535 60.2732 41.6636 58.2417 42.1168Z" fill="#1E80FF" stroke="#1E80FF" stroke-width="0.2"/>
<g filter="url(#filter7_b)">
<path d="M130.28 102.711C128.738 101.489 124.519 99.1906 119.978 99.7716C114.302 100.498 109.672 100.751 108.908 97.1871C108.519 95.3704 109.928 93.9297 113.962 92.4249C115.858 91.4809 116.188 90.8577 116.188 88.7392C116.211 87.4857 115.658 86.4197 114.896 85.533C113.802 86.4445 112.41 87.1461 111.188 86.5639C109.663 85.8374 109.958 83.8538 110.512 82.3872C110.229 82.2577 109.922 82.1222 109.601 81.9802L109.601 81.9801C106.667 80.6818 102.51 78.8427 103.838 76.131C105.465 72.8061 112.487 76.1864 114.327 77.5338C115.46 76.2397 118.482 74.5483 121.513 78.135C120.678 75.9165 120.112 70.4658 123.471 70.2788C124.125 70.1439 125.504 70.7959 125.779 74.4835C126.055 78.1711 128.413 80.7163 129.558 81.528L140.462 89.2591C143.19 91.2356 158.564 99.7716 160.897 118.552L145.528 124.864C139.737 109.115 134.169 105.792 130.28 102.711Z" fill="url(#paint2_linear)"/>
</g>
<g filter="url(#filter8_b)">
<path d="M160.897 118.552C158.564 99.7716 143.19 91.2356 140.462 89.2591L129.558 81.528C128.413 80.7163 126.055 78.1711 125.779 74.4835C125.504 70.7959 124.125 70.1439 123.471 70.2788C120.112 70.4658 120.678 75.9165 121.513 78.135C118.482 74.5483 115.46 76.2397 114.327 77.5338C112.487 76.1864 105.465 72.8061 103.838 76.131C102.51 78.8427 106.667 80.6818 109.601 81.9801C109.922 82.1221 110.229 82.2577 110.512 82.3872C109.958 83.8538 109.663 85.8374 111.188 86.5639C112.41 87.1461 113.802 86.4445 114.896 85.533C115.658 86.4197 116.211 87.4857 116.188 88.7392C116.188 90.8577 115.858 91.4809 113.962 92.4249C109.928 93.9297 108.519 95.3704 108.908 97.1871C109.672 100.751 114.302 100.498 119.978 99.7716C124.519 99.1906 128.738 101.489 130.28 102.711C134.169 105.792 139.901 109.256 145.528 124.864" stroke="url(#paint3_linear)" stroke-width="0.6" stroke-linejoin="round"/>
</g>
<g filter="url(#filter9_b)">
<path d="M110.419 82.3418C111.247 82.7427 113.281 83.848 114.849 85.5071" stroke="#DEA384" stroke-width="0.6" stroke-linejoin="round"/>
</g>
<path d="M114.009 77.3242C114.577 77.6124 116.027 78.6176 117.686 80.2551" stroke="#DEA384" stroke-width="0.6" stroke-linecap="round" stroke-linejoin="round"/>
<g filter="url(#filter10_b)">
<path d="M88.8852 77.7657L76.7352 81.9047C76.2354 82.0749 76.1833 82.7611 76.6516 83.0048L89.6899 89.7919C90.689 90.312 91.8611 90.3867 92.9182 89.9978L105.659 85.3098C106.162 85.1245 106.188 84.4218 105.699 84.2002L91.8271 77.9091C90.9004 77.4888 89.8484 77.4375 88.8852 77.7657Z" fill="#1E80FF" fill-opacity="0.73"/>
</g>
<path d="M89.4545 80.2604L88.6294 80.5782C88.3861 80.6718 88.3698 81.0098 88.6029 81.1264L88.8206 81.2353L91.9979 82.9293C92.7739 83.3173 93.4727 83.7965 92.8346 84.2273C92.1517 84.6885 91.3369 84.3566 90.7883 84.0863C90.6152 84.001 90.4126 84.0012 90.2417 84.0908L89.3413 84.5629C89.0914 84.6939 89.0542 85.0335 89.2826 85.1991C89.7677 85.5509 90.4592 85.9701 91.1257 86.1266C92.0541 86.3447 93.5815 86.3091 94.3869 85.7496C95.7268 84.8187 95.4927 83.8232 95.0901 83.1712C94.7825 82.673 94.2309 82.2835 93.8118 82.081L90.2624 80.2999C90.0106 80.1736 89.7173 80.1592 89.4545 80.2604Z" fill="white"/>
<defs>
<filter id="filter0_b" x="15.6553" y="74.1758" width="133.586" height="51.1497" filterUnits="userSpaceOnUse" color-interpolation-filters="sRGB">
<feFlood flood-opacity="0" result="BackgroundImageFix"/>
<feGaussianBlur in="BackgroundImage" stdDeviation="4.5"/>
<feComposite in2="SourceAlpha" operator="in" result="effect1_backgroundBlur"/>
<feBlend mode="normal" in="SourceGraphic" in2="effect1_backgroundBlur" result="shape"/>
</filter>
<filter id="filter1_b" x="-5.27637" y="34.3159" width="175.729" height="108.163" filterUnits="userSpaceOnUse" color-interpolation-filters="sRGB">
<feFlood flood-opacity="0" result="BackgroundImageFix"/>
<feGaussianBlur in="BackgroundImage" stdDeviation="15"/>
<feComposite in2="SourceAlpha" operator="in" result="effect1_backgroundBlur"/>
<feBlend mode="normal" in="SourceGraphic" in2="effect1_backgroundBlur" result="shape"/>
</filter>
<filter id="filter2_b" x="8.95801" y="1.02441" width="87.2128" height="92.0774" filterUnits="userSpaceOnUse" color-interpolation-filters="sRGB">
<feFlood flood-opacity="0" result="BackgroundImageFix"/>
<feGaussianBlur in="BackgroundImage" stdDeviation="4.5"/>
<feComposite in2="SourceAlpha" operator="in" result="effect1_backgroundBlur"/>
<feBlend mode="normal" in="SourceGraphic" in2="effect1_backgroundBlur" result="shape"/>
</filter>
<filter id="filter3_b" x="12.5664" y="3.01465" width="86.5663" height="88.9174" filterUnits="userSpaceOnUse" color-interpolation-filters="sRGB">
<feFlood flood-opacity="0" result="BackgroundImageFix"/>
<feGaussianBlur in="BackgroundImage" stdDeviation="4"/>
<feComposite in2="SourceAlpha" operator="in" result="effect1_backgroundBlur"/>
<feBlend mode="normal" in="SourceGraphic" in2="effect1_backgroundBlur" result="shape"/>
</filter>
<filter id="filter4_b" x="43.7705" y="62.959" width="39.3184" height="19.266" filterUnits="userSpaceOnUse" color-interpolation-filters="sRGB">
<feFlood flood-opacity="0" result="BackgroundImageFix"/>
<feGaussianBlur in="BackgroundImage" stdDeviation="2"/>
<feComposite in2="SourceAlpha" operator="in" result="effect1_backgroundBlur"/>
<feBlend mode="normal" in="SourceGraphic" in2="effect1_backgroundBlur" result="shape"/>
</filter>
<filter id="filter5_bd" x="42.6768" y="12.0015" width="87.2319" height="43.7282" filterUnits="userSpaceOnUse" color-interpolation-filters="sRGB">
<feFlood flood-opacity="0" result="BackgroundImageFix"/>
<feGaussianBlur in="BackgroundImage" stdDeviation="2"/>
<feComposite in2="SourceAlpha" operator="in" result="effect1_backgroundBlur"/>
<feColorMatrix in="SourceAlpha" type="matrix" values="0 0 0 0 0 0 0 0 0 0 0 0 0 0 0 0 0 0 127 0" result="hardAlpha"/>
<feOffset dy="1"/>
<feGaussianBlur stdDeviation="2.5"/>
<feComposite in2="hardAlpha" operator="out"/>
<feColorMatrix type="matrix" values="0 0 0 0 0.150052 0 0 0 0 0.155875 0 0 0 0 0.179167 0 0 0 0.16 0"/>
<feBlend mode="normal" in2="effect1_backgroundBlur" result="effect2_dropShadow"/>
<feBlend mode="normal" in="SourceGraphic" in2="effect2_dropShadow" result="shape"/>
</filter>
<filter id="filter6_bd" x="103.244" y="9.60352" width="44.4032" height="47.9294" filterUnits="userSpaceOnUse" color-interpolation-filters="sRGB">
<feFlood flood-opacity="0" result="BackgroundImageFix"/>
<feGaussianBlur in="BackgroundImage" stdDeviation="6.5"/>
<feComposite in2="SourceAlpha" operator="in" result="effect1_backgroundBlur"/>
<feColorMatrix in="SourceAlpha" type="matrix" values="0 0 0 0 0 0 0 0 0 0 0 0 0 0 0 0 0 0 127 0" result="hardAlpha"/>
<feOffset/>
<feGaussianBlur stdDeviation="2"/>
<feComposite in2="hardAlpha" operator="out"/>
<feColorMatrix type="matrix" values="0 0 0 0 0 0 0 0 0 0 0 0 0 0 0 0 0 0 0.15 0"/>
<feBlend mode="normal" in2="effect1_backgroundBlur" result="effect2_dropShadow"/>
<feBlend mode="normal" in="SourceGraphic" in2="effect2_dropShadow" result="shape"/>
</filter>
<filter id="filter7_b" x="83.583" y="50.2627" width="97.314" height="94.6014" filterUnits="userSpaceOnUse" color-interpolation-filters="sRGB">
<feFlood flood-opacity="0" result="BackgroundImageFix"/>
<feGaussianBlur in="BackgroundImage" stdDeviation="10"/>
<feComposite in2="SourceAlpha" operator="in" result="effect1_backgroundBlur"/>
<feBlend mode="normal" in="SourceGraphic" in2="effect1_backgroundBlur" result="shape"/>
</filter>
<filter id="filter8_b" x="83.2832" y="49.9624" width="97.9118" height="95.0034" filterUnits="userSpaceOnUse" color-interpolation-filters="sRGB">
<feFlood flood-opacity="0" result="BackgroundImageFix"/>
<feGaussianBlur in="BackgroundImage" stdDeviation="10"/>
<feComposite in2="SourceAlpha" operator="in" result="effect1_backgroundBlur"/>
<feBlend mode="normal" in="SourceGraphic" in2="effect1_backgroundBlur" result="shape"/>
</filter>
<filter id="filter9_b" x="90.2881" y="62.0718" width="44.7793" height="43.6413" filterUnits="userSpaceOnUse" color-interpolation-filters="sRGB">
<feFlood flood-opacity="0" result="BackgroundImageFix"/>
<feGaussianBlur in="BackgroundImage" stdDeviation="10"/>
<feComposite in2="SourceAlpha" operator="in" result="effect1_backgroundBlur"/>
<feBlend mode="normal" in="SourceGraphic" in2="effect1_backgroundBlur" result="shape"/>
</filter>
<filter id="filter10_b" x="69.3291" y="70.5518" width="43.7229" height="26.6919" filterUnits="userSpaceOnUse" color-interpolation-filters="sRGB">
<feFlood flood-opacity="0" result="BackgroundImageFix"/>
<feGaussianBlur in="BackgroundImage" stdDeviation="3.5"/>
<feComposite in2="SourceAlpha" operator="in" result="effect1_backgroundBlur"/>
<feBlend mode="normal" in="SourceGraphic" in2="effect1_backgroundBlur" result="shape"/>
</filter>
<linearGradient id="paint0_linear" x1="24" y1="26" x2="59" y2="77" gradientUnits="userSpaceOnUse">
<stop stop-color="white" stop-opacity="0.56"/>
<stop offset="1" stop-color="white" stop-opacity="0"/>
</linearGradient>
<linearGradient id="paint1_linear" x1="60" y1="23" x2="117" y2="48" gradientUnits="userSpaceOnUse">
<stop stop-color="#578CD1"/>
<stop offset="1" stop-color="#2884FC" stop-opacity="0"/>
</linearGradient>
<linearGradient id="paint2_linear" x1="125.5" y1="74.501" x2="146" y2="120.501" gradientUnits="userSpaceOnUse">
<stop offset="0.00634521" stop-color="#FFD0B6"/>
<stop offset="0.3125" stop-color="#FFCFB4" stop-opacity="0.8418"/>
<stop offset="0.502171" stop-color="#FFCFB4" stop-opacity="0.58"/>
<stop offset="0.755884" stop-color="#FFCBAD" stop-opacity="0.17"/>
<stop offset="0.952668" stop-color="#FFD2B9" stop-opacity="0"/>
</linearGradient>
<linearGradient id="paint3_linear" x1="126.541" y1="72.2989" x2="150.293" y2="109.511" gradientUnits="userSpaceOnUse">
<stop offset="0.0276252" stop-color="#DEA384"/>
<stop offset="0.84375" stop-color="#DEA384" stop-opacity="0.06"/>
<stop offset="1" stop-color="#DEA384" stop-opacity="0"/>
</linearGradient>
</defs>
</svg>
