<svg width="32" height="32" viewBox="0 0 32 32" fill="none" xmlns="http://www.w3.org/2000/svg">
<rect x="0.25" y="0.25" width="31.5" height="31.5" rx="1.75" fill="white" stroke="#C9CDD4" stroke-width="0.5"/>
<path fill-rule="evenodd" clip-rule="evenodd" d="M15.9966 11.0071H15.9983L18.9234 8.68113L15.9983 6.33384L15.995 6.33057L13.0748 8.67622L15.995 11.0055L15.9966 11.0071ZM15.9992 18.3453L16.0008 18.3436L23.5469 12.3903L21.5007 10.7469L16.0008 15.0862L15.9992 15.0879L15.9975 15.0895L10.4976 10.7501L8.45312 12.3936L15.9975 18.3469L15.9992 18.3453ZM15.9956 22.4154L15.9989 22.4138L26.1018 14.4422L28.1479 16.0856L23.5515 19.7113L15.9989 25.6696L4.04799 16.246L3.85156 16.0905L5.89767 14.4471L15.9956 22.4154Z" fill="#1D7DFA"/>
</svg>
