<?xml version="1.0" encoding="UTF-8" standalone="no"?>
<svg width="99px" height="169px" viewBox="0 0 99 169" version="1.1" xmlns="http://www.w3.org/2000/svg" xmlns:xlink="http://www.w3.org/1999/xlink">
    <!-- Generator: sketchtool 3.7.1 (28215) - http://www.bohemiancoding.com/sketch -->
    <title>5A0BD41C-A94B-405A-954A-69A9B44E17EC</title>
    <desc>Created with sketchtool.</desc>
    <defs>
        <path d="M30.5931019,99 C19.3658195,99 12.9105463,99 6.45527317,92.5447268 C0,86.0894537 0,79.6341805 0,68.4063459 L0,30.5931019 C0,19.3652673 0,12.9105463 6.45527317,6.45527317 C12.9105463,0 19.3658195,0 30.5931019,0 L68.4068981,0 C79.6347327,0 86.0894537,0 92.5447268,6.45527317 C99,12.9105463 99,19.3652673 99,30.5931019 L99,68.4063459 C99,79.6341805 99,86.0894537 92.5447268,92.5447268 C86.0894537,99 79.6347327,99 68.4068981,99 L30.5931019,99" id="path-1"></path>
    </defs>
    <g id="Page-1" stroke="none" stroke-width="1" fill="none" fill-rule="evenodd">
        <g id="juejin_chrome_extension_designer_update-copy" transform="translate(-671.000000, -227.000000)">
            <g id="Group-2" transform="translate(671.000000, 227.000000)">
                <path d="M78.3858068,165.60352 L72.217843,165.60352 L72.217843,142.091559 L87.5445082,142.091559 L87.5445082,140.039796 L72.217843,140.039796 L72.217843,130.84693 L81.9181489,130.84693 L81.9181489,128.795166 L60.4195064,128.795166 L60.4195064,130.84693 L70.1224106,130.84693 L70.1224106,140.039796 L55.2114541,140.039796 L55.2114541,142.091559 L70.1224106,142.091559 L70.1224106,165.60352 L64.4489406,165.60352 L61.2170179,146.725644 L59.1501655,147.064001 L62.3239586,165.60352 L57.0496667,165.60352 L57.0496667,167.655283 L85.7855402,167.655283 L85.7855402,165.60352 L80.5107667,165.60352 L83.6833526,147.064001 L81.6165002,146.725644 L78.3858068,165.60352 Z M38.4687806,150.26007 L45.8003256,150.26007 L45.8003256,135.553011 L43.7048933,135.553011 L43.7048933,148.208307 L38.4687806,148.208307 L38.4687806,134.632706 L36.3733482,134.632706 L36.3733482,148.208307 L31.2050481,148.208307 L31.2050481,135.553011 L29.1083166,135.553011 L29.1083166,150.26007 L36.3733482,150.26007 L36.3733482,165.604156 L31.2050481,165.604156 L31.2050481,153.142206 L29.1083166,153.142206 L29.1083166,167.655919 L45.8003256,167.655919 L45.8003256,153.142206 L43.7048933,153.142206 L43.7048933,165.604156 L38.4687806,165.604156 L38.4687806,150.26007 Z M14.3653325,146.736362 L14.3653325,128.876575 L10.669551,128.876575 L10.669551,126.824812 L14.3653325,126.824812 L14.3653325,119.000636 L16.462064,119.000636 L16.462064,126.824812 L20.7842668,126.824812 L20.7842668,128.876575 L16.462064,128.876575 L16.462064,144.678943 L19.7353814,141.466999 L21.2176432,142.915826 L16.462064,147.582863 L16.462064,154.146464 C16.462064,161.458017 13.823612,166.852641 13.7131893,167.077788 L13.2546105,168 L11.3722289,167.1045 L11.8269104,166.182288 C11.8528922,166.130135 14.3653325,160.964474 14.3653325,154.146464 L14.3653325,149.640556 L11.4835609,152.468673 L10,151.019846 L14.3653325,146.736362 Z M23.1484809,167.839344 L21.0946194,167.431027 L21.3011747,166.426133 C23.5317125,155.641974 22.7964274,120.402017 22.7886329,120.048396 L22.7652493,119.000254 L46.6386285,119.000254 L46.6386285,131.322282 L25.0113761,131.322282 C25.0490497,142.761531 24.8308026,159.70098 23.3563353,166.833179 L23.1484809,167.839344 Z M25.0022825,129.270519 L44.5431961,129.270519 L44.5431961,121.052018 L24.9048507,121.052018 C24.9321316,122.559358 24.9788989,125.519341 25.0022825,129.270519 Z M87.8520029,131.269875 L76.5642088,121.051763 L65.7752653,121.051763 L54.4861721,131.269875 L53.0649675,129.762535 L64.9555394,119 L77.3826356,119 L89.2745066,129.762535 L87.8520029,131.269875 Z" id="Combined-Shape-Copy-3" stroke="#006CFF" stroke-width="0.567" fill="#006CFF"></path>
                <g id="Mask-Copy-+-Fill-1-Copy-Copy-Copy-Copy-Copy">
                    <mask id="mask-2" fill="white">
                        <use xlink:href="#path-1"></use>
                    </mask>
                    <use id="Mask-Copy" fill="#006CFF" xlink:href="#path-1"></use>
                    <path d="M55.6427458,27.5580946 L49.5065247,22.7197266 L43.0954501,27.7748971 L42.763138,28.0426422 L49.5065247,33.4194624 L56.2706437,28.0426422 L55.6427458,27.5580946 Z M78.895701,46.3215797 L49.488754,69.5093756 L20.0995776,46.3357963 L15.7587891,49.8224067 L49.488754,76.4186221 L83.2370819,49.8081902 L78.895701,46.3215797 Z M49.488754,48.202904 L33.4862426,35.5851178 L29.1448617,39.0717283 L49.488754,55.1127428 L69.8498246,39.0575117 L65.5084437,35.5709012 L49.488754,48.202904 Z" id="Fill-1-Copy" fill="#FFFFFF" mask="url(#mask-2)"></path>
                </g>
            </g>
        </g>
    </g>
</svg>