<svg width="183" height="153" viewBox="0 0 183 153" fill="none" xmlns="http://www.w3.org/2000/svg">
<path d="M91.3094 152.952C141.656 152.952 182.47 144.067 182.47 133.106C182.47 122.145 141.656 113.26 91.3094 113.26C40.9631 113.26 0.149231 122.145 0.149231 133.106C0.149231 144.067 40.9631 152.952 91.3094 152.952Z" fill="url(#paint0_linear)"/>
<path d="M144.9 131.442C144.635 134.27 138.207 135.979 130.544 135.251C122.881 134.524 116.889 131.646 117.154 128.818C117.418 125.99 123.846 124.281 131.509 125.008C139.172 125.736 145.164 128.614 144.9 131.442Z" fill="url(#paint1_linear)"/>
<path d="M148.141 61.4173C108.14 30.5454 114.606 1.52584 89.8208 2.09918C80.9341 2.30315 73.9714 11.5316 73.9714 11.5316C73.9714 11.5316 47.3664 30.9258 48.0886 64.2398C48.6289 89.1358 71.8544 101.926 90.5429 106.352C100.438 108.695 124.557 111.082 124.557 111.082C125.941 111.082 126.575 108.971 125.009 107.841C117.754 102.587 116.315 97.587 121.04 95.3102C145.335 83.6064 153.885 65.8496 148.141 61.4173Z" fill="#AECEFC"/>
<path d="M83.8671 25.6669C85.0515 25.6669 86.0116 24.7068 86.0116 23.5224C86.0116 22.3381 85.0515 21.3779 83.8671 21.3779C82.6827 21.3779 81.7226 22.3381 81.7226 23.5224C81.7226 24.7068 82.6827 25.6669 83.8671 25.6669Z" fill="white"/>
<path d="M83.8669 26.0035C82.4998 26.0035 81.3862 24.89 81.3862 23.5228C81.3862 22.1556 82.4998 21.042 83.8669 21.042C85.2341 21.042 86.3477 22.1556 86.3477 23.5228C86.3477 24.89 85.2341 26.0035 83.8669 26.0035ZM83.8669 21.7146C82.8691 21.7146 82.0532 22.5305 82.0532 23.5283C82.0532 24.5261 82.8691 25.342 83.8669 25.342C84.8648 25.342 85.6807 24.5261 85.6807 23.5283C85.6807 22.5305 84.8648 21.7146 83.8669 21.7146Z" fill="#3770E2"/>
<path d="M98.7519 25.6669C99.9363 25.6669 100.896 24.7068 100.896 23.5224C100.896 22.3381 99.9363 21.3779 98.7519 21.3779C97.5676 21.3779 96.6075 22.3381 96.6075 23.5224C96.6075 24.7068 97.5676 25.6669 98.7519 25.6669Z" fill="white"/>
<path d="M98.7517 26.0035C97.3845 26.0035 96.2709 24.89 96.2709 23.5228C96.2709 22.1556 97.3845 21.042 98.7517 21.042C100.119 21.042 101.232 22.1556 101.232 23.5228C101.232 24.89 100.119 26.0035 98.7517 26.0035ZM98.7517 21.7146C97.7539 21.7146 96.938 22.5305 96.938 23.5283C96.938 24.5261 97.7539 25.342 98.7517 25.342C99.7495 25.342 100.565 24.5261 100.565 23.5283C100.565 22.5305 99.7495 21.7146 98.7517 21.7146Z" fill="#3770E2"/>
<path d="M108.868 44.8731L107.434 46.4111C107.082 46.786 106.569 46.9679 106.062 46.8907L103.983 46.582C102.704 46.3946 101.762 47.7507 102.39 48.8809L103.41 50.7222C103.658 51.1687 103.669 51.7145 103.443 52.172L102.506 54.0574C101.927 55.2151 102.93 56.5327 104.204 56.2846L106.271 55.8822C106.773 55.7829 107.297 55.9428 107.661 56.3012L109.16 57.7731C110.086 58.6772 111.646 58.1314 111.801 56.8469L112.054 54.7576C112.115 54.2449 112.424 53.7983 112.881 53.5613L114.744 52.5855C115.891 51.9846 115.853 50.3308 114.684 49.785L112.776 48.8974C112.313 48.6824 111.983 48.2469 111.894 47.7397L111.547 45.6669C111.332 44.4045 109.75 43.9248 108.868 44.8731Z" fill="#FFE3B2"/>
<path d="M59.2908 56.6101C59.2798 56.6101 59.2688 56.6101 59.2522 56.6101C59.0703 56.5881 58.938 56.4227 58.9546 56.2407C61.0494 37.2545 70.0629 18.996 72.1798 15.4954C72.2736 15.3355 72.483 15.2859 72.6374 15.3851C72.7973 15.4788 72.8469 15.6828 72.7477 15.8427C70.6473 19.3213 61.6999 37.453 59.6161 56.3179C59.6051 56.4888 59.4562 56.6101 59.2908 56.6101Z" fill="#3770E2"/>
<path d="M105.263 28.4787H77.5552C77.4449 26.5271 76.2597 25.2371 76.2376 25.2151C76.1108 25.0828 75.9013 25.0773 75.769 25.2041C75.6367 25.3309 75.6312 25.5403 75.7525 25.6726C75.8572 25.7829 78.2994 28.4621 75.7525 31.9187C75.6422 32.0675 75.6753 32.277 75.8242 32.3873C75.8848 32.4314 75.951 32.4534 76.0226 32.4534C76.1274 32.4534 76.2266 32.4038 76.2928 32.3156C77.1307 31.1745 77.478 30.0995 77.5497 29.1457H105.263C105.445 29.1457 105.593 28.9969 105.593 28.815C105.593 28.633 105.445 28.4787 105.263 28.4787Z" fill="#3770E2"/>
<path d="M82.8473 96.6338V113.299C82.8473 113.299 79.523 115.471 79.523 118.724C79.523 120.438 80.9123 121.833 82.6323 121.833H87.1473C89.4461 121.833 91.3095 119.97 91.3095 117.671V97.0638" fill="#FFE3E2"/>
<path d="M99.7717 96.6338V113.299C99.7717 113.299 103.096 115.471 103.096 118.724C103.096 120.438 101.707 121.833 99.9867 121.833H95.4716C93.1728 121.833 91.3094 119.97 91.3094 117.671V97.0638" fill="#FFE3E2"/>
<path d="M102.037 121.838H97.3405C97.3405 121.838 97.2027 117.091 102.357 116.088C102.026 114.059 100.086 113.26 100.086 113.26C100.086 113.26 93.3878 114.252 93.3933 121.838H92.3679C91.7836 121.838 91.3095 122.312 91.3095 122.896C91.3095 122.312 90.8354 121.838 90.251 121.838H89.2256C89.2311 114.252 82.5331 113.26 82.5331 113.26C82.5331 113.26 80.5925 114.059 80.2618 116.088C85.4163 117.091 85.2784 121.838 85.2784 121.838H80.5815C79.9971 121.838 79.523 122.312 79.523 122.896V123.062C79.523 123.646 79.9971 124.12 80.5815 124.12H90.2455C90.8299 124.12 91.304 123.646 91.304 123.062C91.304 123.646 91.7781 124.12 92.3624 124.12H102.026C102.611 124.12 103.085 123.646 103.085 123.062V122.896C103.096 122.312 102.622 121.838 102.037 121.838Z" fill="#91BBFF"/>
<path d="M91.3092 117.594C91.1273 117.594 90.9785 117.445 90.9785 117.263V97.4772C90.9785 97.2953 91.1273 97.1465 91.3092 97.1465C91.4912 97.1465 91.64 97.2953 91.64 97.4772V117.263C91.64 117.445 91.4912 117.594 91.3092 117.594Z" fill="#D38989"/>
<path d="M131.713 0.280273H119.8C116.944 0.280273 114.607 2.61772 114.607 5.47336V11.2177C114.607 13.7371 116.42 15.8485 118.807 16.3116V20.0328C118.807 20.5124 119.375 20.7715 119.739 20.4572L124.414 16.4053H131.713C134.569 16.4053 136.906 14.0679 136.906 11.2122V5.47336C136.906 2.61772 134.569 0.280273 131.713 0.280273Z" fill="#CEE6FF"/>
<path d="M120.279 10.143C121.217 10.143 121.977 9.38278 121.977 8.44502C121.977 7.50727 121.217 6.74707 120.279 6.74707C119.342 6.74707 118.582 7.50727 118.582 8.44502C118.582 9.38278 119.342 10.143 120.279 10.143Z" fill="white"/>
<path d="M125.974 10.143C126.912 10.143 127.672 9.38278 127.672 8.44502C127.672 7.50727 126.912 6.74707 125.974 6.74707C125.037 6.74707 124.277 7.50727 124.277 8.44502C124.277 9.38278 125.037 10.143 125.974 10.143Z" fill="white"/>
<path d="M131.675 10.143C132.612 10.143 133.372 9.38278 133.372 8.44502C133.372 7.50727 132.612 6.74707 131.675 6.74707C130.737 6.74707 129.977 7.50727 129.977 8.44502C129.977 9.38278 130.737 10.143 131.675 10.143Z" fill="white"/>
<path d="M91.3096 97.4276C84.9478 97.4276 80.0138 96.8543 75.7855 95.6249C75.609 95.5753 75.5043 95.3879 75.5594 95.2114C75.609 95.035 75.7965 94.9358 75.9729 94.9854C80.1406 96.1927 85.0139 96.7605 91.3096 96.7605C97.6053 96.7605 102.479 96.1982 106.646 94.9854C106.823 94.9358 107.01 95.035 107.06 95.2114C107.109 95.3879 107.01 95.5753 106.834 95.6249C102.605 96.8598 97.6714 97.4276 91.3096 97.4276Z" fill="#3770E2"/>
<path opacity="0.5" d="M13.2973 51.0867C15.9066 51.0867 18.0218 48.9715 18.0218 46.3622C18.0218 43.7529 15.9066 41.6377 13.2973 41.6377C10.688 41.6377 8.57281 43.7529 8.57281 46.3622C8.57281 48.9715 10.688 51.0867 13.2973 51.0867Z" fill="#D6EDFC"/>
<path opacity="0.5" d="M151.267 43.4129C153.636 43.4129 155.556 41.4927 155.556 39.1239C155.556 36.7552 153.636 34.835 151.267 34.835C148.898 34.835 146.978 36.7552 146.978 39.1239C146.978 41.4927 148.898 43.4129 151.267 43.4129Z" fill="#D6EDFC"/>
<path opacity="0.5" d="M31.1367 65.3371C33.1005 65.3371 34.6925 63.7452 34.6925 61.7814C34.6925 59.8176 33.1005 58.2256 31.1367 58.2256C29.1729 58.2256 27.5809 59.8176 27.5809 61.7814C27.5809 63.7452 29.1729 65.3371 31.1367 65.3371Z" fill="#D6EDFC"/>
<path opacity="0.5" d="M37.4379 26.3289C40.918 26.3289 43.7391 23.5078 43.7391 20.0277C43.7391 16.5477 40.918 13.7266 37.4379 13.7266C33.9579 13.7266 31.1367 16.5477 31.1367 20.0277C31.1367 23.5078 33.9579 26.3289 37.4379 26.3289Z" fill="#D6EDFC"/>
<path d="M28.1214 81.3135C23.3914 81.3135 23.5237 88.8661 24.8358 92.9841C26.1478 97.1022 20.635 104.093 24.0474 109.589C27.4654 115.08 21.1587 117.577 28.1214 128.068" fill="#D6EDE8"/>
<path d="M28.1216 81.3135C32.8516 81.3135 32.7193 88.8661 31.4072 92.9841C30.0951 97.1022 35.608 104.093 32.1955 109.589C28.7776 115.08 35.0843 117.577 28.1216 128.068" fill="#D6EDE8"/>
<path d="M42.5094 96.3691C39.301 96.3691 39.3892 101.491 40.2823 104.28C41.1753 107.075 37.4321 111.811 39.7475 115.537C42.0629 119.264 37.7849 120.956 42.5094 128.062" fill="#D6EDE8"/>
<path d="M42.5095 96.3691C45.7179 96.3691 45.6297 101.491 44.7366 104.28C43.8436 107.075 47.5868 111.811 45.2714 115.537C42.956 119.264 47.234 120.956 42.5095 128.062" fill="#D6EDE8"/>
<path d="M153.141 95.2334C149.933 95.2334 150.021 100.355 150.914 103.144C151.807 105.934 148.064 110.675 150.379 114.402C152.695 118.128 148.417 119.821 153.141 126.927" fill="#D6EDE8"/>
<path d="M153.142 95.2334C156.35 95.2334 156.262 100.355 155.369 103.144C154.476 105.934 158.219 110.675 155.904 114.402C153.588 118.128 157.866 119.821 153.142 126.927" fill="#D6EDE8"/>
<path d="M62.1907 136.21C66.6561 135.51 68.3706 137.247 68.3706 137.247C71.7996 137.098 71.7996 138.548 71.7996 138.548C65.0795 141.933 57.4662 141.216 57.4662 141.216C57.4662 141.216 51.5399 138.553 55.432 134.772C55.432 134.772 56.6724 134.06 57.5379 135.009C57.5324 135.003 60.9889 134.705 62.1907 136.21Z" fill="url(#paint2_linear)"/>
<path d="M63.6347 130.747C67.3394 128.603 68.5301 131.762 68.5301 131.762C71.3307 130.896 71.1653 133.763 71.1653 133.763C65.3217 141.602 57.4659 141.216 57.4659 141.216C57.4659 141.216 50.3984 139.491 53.9928 131.332C53.9928 131.332 56.9752 128.862 58.3976 130.328C58.392 130.323 62.8354 127.963 63.6347 130.747Z" fill="white"/>
<path d="M56.9312 136.559L56.402 136.509C56.7327 132.97 58.2212 130.329 58.2763 130.219L58.4638 130.362C58.4472 130.39 57.251 133.124 56.9312 136.559Z" fill="#EBF0FE"/>
<path d="M63.2877 137.6L62.9901 137.159C66.7939 134.601 68.4202 131.751 68.4367 131.724L68.6297 131.817C68.569 131.939 67.2184 134.954 63.2877 137.6Z" fill="#EBF0FE"/>
<path d="M60.1344 137.059L59.6768 136.784L63.5579 130.703L63.7508 130.813L60.1344 137.059Z" fill="#EBF0FE"/>
<defs>
<linearGradient id="paint0_linear" x1="91.3085" y1="112.414" x2="91.3085" y2="165.425" gradientUnits="userSpaceOnUse">
<stop offset="0.000926442" stop-color="#CEE6FF" stop-opacity="0.8"/>
<stop offset="0.00752014" stop-color="#CEE6FF" stop-opacity="0.7935"/>
<stop offset="0.8066" stop-color="#CEE6FF" stop-opacity="0"/>
</linearGradient>
<linearGradient id="paint1_linear" x1="132.106" y1="123.071" x2="128.557" y2="146.289" gradientUnits="userSpaceOnUse">
<stop offset="0.000926442" stop-color="#CEE6FF" stop-opacity="0.8"/>
<stop offset="0.1326" stop-color="#CEE6FF" stop-opacity="0.6945"/>
<stop offset="1" stop-color="#CEE6FF" stop-opacity="0"/>
</linearGradient>
<linearGradient id="paint2_linear" x1="69.9685" y1="135.214" x2="56.0677" y2="138.856" gradientUnits="userSpaceOnUse">
<stop offset="0.000926442" stop-color="#CEE6FF" stop-opacity="0.8"/>
<stop offset="0.8588" stop-color="#CEE6FF" stop-opacity="0.1131"/>
<stop offset="1" stop-color="#CEE6FF" stop-opacity="0"/>
</linearGradient>
</defs>
</svg>
