<svg width="700" height="700" viewBox="0 0 700 700" fill="none" xmlns="http://www.w3.org/2000/svg">
<rect width="700" height="700" fill="white"/>
<path fill-rule="evenodd" clip-rule="evenodd" d="M349.622 217.922H349.667L429.533 154.413L349.667 90.3238L349.578 90.2344L269.846 154.279L349.578 217.877L349.622 217.922ZM349.667 418.28L349.711 418.235L555.745 255.687L499.879 210.816L349.711 329.296L349.667 329.341L349.622 329.386L199.454 210.905L143.633 255.777L349.622 418.325L349.667 418.28ZM349.576 529.385L349.665 529.34L625.509 311.686L681.375 356.558L555.878 455.553L349.665 618.234L23.3631 360.938L18 356.692L73.866 311.82L349.576 529.385Z" fill="black"/>
</svg>
